<svg xmlns="http://www.w3.org/2000/svg" xmlns:xlink="http://www.w3.org/1999/xlink" version="1.1" x="50px" y="50px" viewBox="30 20 30 70" enable-background="new 0 0 100 100" xml:space="preserve"><g><path d="M80.2,59.4c-4.5,0-6.5-4.9-8.2-9.3c-1.2-3.2-2.7-6.7-4.5-6.7c-1.8,0-3.2,3.6-4.5,6.7c-1.7,4.3-3.7,9.3-8.2,9.3   s-6.5-4.9-8.2-9.3c-1.2-3.2-2.7-6.7-4.5-6.7c-1.8,0-3.2,3.6-4.5,6.7c-1.7,4.3-3.7,9.3-8.2,9.3s-6.5-4.9-8.2-9.3   c-1.2-3.2-2.7-6.7-4.5-6.7c-1.1,0-2-0.9-2-2s0.9-2,2-2c4.5,0,6.5,4.9,8.2,9.3c1.2,3.2,2.7,6.7,4.5,6.7c1.8,0,3.2-3.6,4.5-6.7   c1.7-4.3,3.7-9.3,8.2-9.3s6.5,4.9,8.2,9.3c1.2,3.2,2.7,6.7,4.5,6.7s3.2-3.6,4.5-6.7c1.7-4.3,3.7-9.3,8.2-9.3c4.5,0,6.5,4.9,8.2,9.3   c1.2,3.2,2.7,6.7,4.5,6.7c1.1,0,2,0.9,2,2S81.3,59.4,80.2,59.4z"/></g><text x="0" y="115" fill="#000000" font-size="5px" font-weight="bold" font-family="'Helvetica Neue', Helvetica, Arial-Unicode, Arial, Sans-serif">Created by Aurélien Lemesre</text><text x="0" y="120" fill="#000000" font-size="5px" font-weight="bold" font-family="'Helvetica Neue', Helvetica, Arial-Unicode, Arial, Sans-serif">from the Noun Project</text></svg>